<?xml version="1.0" encoding="iso-8859-1"?>
<!-- Generator: Adobe Illustrator 19.0.0, SVG Export Plug-In . SVG Version: 6.00 Build 0)  -->
<svg version="1.1" id="Layer_1" xmlns="http://www.w3.org/2000/svg" xmlns:xlink="http://www.w3.org/1999/xlink" x="0px" y="0px"
	 viewBox="0 0 512 512" style="enable-background:new 0 0 512 512;" xml:space="preserve">
<path style="fill:#666666;" d="M474.755,229.667c0,52.432-97.94,118.67-218.755,118.67S37.245,282.099,37.245,229.667
	c0-29.701,70.195-82.28,131.058-117.478c54.273-31.386,121.12-31.386,175.393,0C404.56,147.387,474.755,199.966,474.755,229.667z"/>
<g>
	<path style="fill:#666666;" d="M343.697,112.189c-27.236-15.751-57.639-23.592-88.03-23.535v259.679
		c0.111,0,0.222,0.003,0.333,0.003c120.815,0,218.755-66.238,218.755-118.67C474.755,199.966,404.56,147.387,343.697,112.189z"/>
	<path style="fill:#666666;" d="M369.916,394.51H142.084c-31.936,0-57.826-25.889-57.826-57.826v-28.045h343.484v28.045
		C427.742,368.621,401.852,394.51,369.916,394.51z"/>
</g>
<path style="fill:#666666;" d="M255.667,308.639v85.871h114.249c31.936,0,57.826-25.89,57.826-57.826v-28.045H255.667z"/>
<path style="fill:#FFCF12;" d="M84.382,328.788h343.236c0.074-1.197,0.124-2.401,0.124-3.617v-28.045H84.258v28.045
	C84.258,326.387,84.308,327.59,84.382,328.788z"/>
<path style="fill:#FFCF12;" d="M255.667,297.126v31.662h171.951c0.074-1.198,0.124-2.401,0.124-3.617v-28.045L255.667,297.126
	L255.667,297.126z"/>
<polygon style="fill:#FFDC00;" points="255.708,192.604 265.14,221.631 295.66,221.631 270.969,239.571 280.4,268.598 
	255.708,250.658 231.017,268.598 240.448,239.571 215.756,221.631 246.277,221.631 "/>
<polygon style="fill:#FFDC00;" points="255.708,250.658 280.4,268.598 270.969,239.571 295.66,221.631 265.14,221.631 
	255.708,192.604 "/>
</svg>
