<svg height="512" viewBox="0 0 512 512" width="512" xmlns="http://www.w3.org/2000/svg"><g id="Flat"><path d="m105.229 120.035c-15.874-.888-29.679 15.126-30.829 35.765-.8 14.357 4.724 27.171 13.505 33.943l31.656-2.233c6.907-6.487 11.666-16.74 12.323-28.494 1.15-20.639-10.784-38.093-26.655-38.981z" fill="#bfbfbd"/><path d="m488 332.64a81.744 81.744 0 0 1 -.87 11.36 82.953 82.953 0 0 1 -18.74 41.57 85.425 85.425 0 0 1 -60.39 30.28c-1.67.1-3.36.15-5.05.15h-91.19a95.759 95.759 0 0 1 -42.09-9.73 93.9 93.9 0 0 1 -13.76-8.2 95.242 95.242 0 0 1 -12.03-10.19l-14.5-14.5a53.333 53.333 0 0 0 -4.65-4.14 63.912 63.912 0 0 0 -13.72-8.24c-10.73-4.81-22.88-7.26-35.01-8.63-5.38-.62-10.76-1.02-16-1.32-5.17-.3-10.21-.5-15-.72-5.5-.25-11.2-.55-17-.91-5.29-.34-10.65-.72-16-1.15-11.15-.9-22.28-2.02-32.62-3.36a8.406 8.406 0 0 1 -5.27-2.81 8.5 8.5 0 0 1 6.38-14.1h111.75a95.723 95.723 0 0 1 35.68 6.89 93.353 93.353 0 0 1 14.38 7.21 95.04 95.04 0 0 1 17.82 14.02l11.48 11.48c.86.86 1.75 1.69 2.66 2.49a56.03 56.03 0 0 0 36.94 13.91h92.8c1.35 0 2.68-.05 4-.15a52.055 52.055 0 0 0 46.61-39.85 52.69 52.69 0 0 0 1.38-12.89c-.02-1.05-.07-2.08-.15-3.11a50.929 50.929 0 0 0 -9.83-26.38 53.233 53.233 0 0 0 -42.87-21.62h-27.14v-32h28a83.645 83.645 0 0 1 53.32 19.09 84.6 84.6 0 0 1 11.34 11.29 83.606 83.606 0 0 1 19.24 49.62c.08 1.54.11 3.08.1 4.64z" fill="#feb784"/><g fill="#f7a468"><path d="m488 332.64a81.744 81.744 0 0 1 -.87 11.36h-32.52a52.69 52.69 0 0 0 1.38-12.89c-.02-1.05-.07-2.08-.15-3.11h32.06c.08 1.54.11 3.08.1 4.64z"/><path d="m468.66 278.38-22.65 23.24a53.015 53.015 0 0 0 -11.33-11.3l22.64-23.23a84.6 84.6 0 0 1 11.34 11.29z"/><path d="m468.39 385.57a85.286 85.286 0 0 1 -11.41 11.23l-22.6-22.6a51.724 51.724 0 0 0 11.4-11.24z"/><path d="m408 383.85v32c-1.67.1-3.36.15-5.05.15h-10.95v-32h12c1.35 0 2.68-.05 4-.15z"/><path d="m328 384h16v32h-16z"/><path d="m287.68 378.82-18.01 27.45a93.9 93.9 0 0 1 -13.76-8.2l18.35-27.98a55.955 55.955 0 0 0 13.42 8.73z"/><path d="m242.3 342.1-17.57 27.14a63.912 63.912 0 0 0 -13.72-8.24l16.91-26.11a93.353 93.353 0 0 1 14.38 7.21z"/><path d="m176 328v24.37c-5.38-.62-10.76-1.02-16-1.32v-23.05z"/><path d="m128 328v21.42c-5.29-.34-10.65-.72-16-1.15v-20.27z"/></g><path d="m287.473 96a112.529 112.529 0 0 0 -70.295 24.658l-49.178 39.342h-1.454c4.113-15.722-.681-31.179-12.575-37.094-14.235-7.081-33.239 2.186-42.446 20.7a45.892 45.892 0 0 0 -4.917 19.526 79.988 79.988 0 0 0 -42.569 29.816l-35.42 48.7a24.149 24.149 0 0 0 -4.619 14.204 24.147 24.147 0 0 0 24.147 24.148h351.853v-71.473a112.527 112.527 0 0 0 -112.527-112.527z" fill="#cfcfcd"/><path d="m400 208.53v71.47h-351.85a24.146 24.146 0 0 1 -19.53-38.35l35.42-48.7a79.938 79.938 0 0 1 42.57-29.82 45.858 45.858 0 0 1 4.92-19.53c9.2-18.51 28.21-27.77 42.44-20.69 11.9 5.91 16.69 21.37 12.58 37.09h1.45l49.18-39.34a112.526 112.526 0 0 1 182.82 87.87z" fill="#c7c7c5"/><path d="m400 208.53v71.47h-351.85a24.117 24.117 0 0 1 -5.86-.72c106.23-19.29 233.96-61.36 322.69-152.33a112.213 112.213 0 0 1 35.02 81.58z" fill="#bfbfbd"/><path d="m128 280h-16a40.045 40.045 0 0 1 40-40h24v-16h16v24a8 8 0 0 1 -8 8h-32a24.028 24.028 0 0 0 -24 24z" fill="#b0b0ae"/><path d="m216 280h-16a40.045 40.045 0 0 1 40-40h24.4a80.117 80.117 0 0 1 79.6-72v16a64.072 64.072 0 0 0 -64 64 8 8 0 0 1 -8 8h-32a24.028 24.028 0 0 0 -24 24z" fill="#b0b0ae"/><circle cx="96" cy="224" fill="#b0b0ae" r="16"/></g></svg>