<svg id="Layer_1" enable-background="new 0 0 128 128" height="512" viewBox="0 0 128 128" width="512" xmlns="http://www.w3.org/2000/svg"><g><path d="m102 117h-80c-8.284 0-15-6.716-15-15v-80c0-8.284 6.716-15 15-15h80c8.284 0 15 6.716 15 15v80c0 8.284-6.716 15-15 15z" fill="#40aa5494"/><g><path d="m62 21.25c-22.506 0-40.75 18.244-40.75 40.75 0 17.351 10.849 32.159 26.128 38.037l9.909-26.463c-4.566-1.862-7.787-6.339-7.787-11.574 0-6.904 5.596-12.5 12.5-12.5s12.5 5.596 12.5 12.5c0 5.235-3.221 9.712-7.787 11.574l9.909 26.463c15.279-5.878 26.128-20.686 26.128-38.037 0-22.506-18.244-40.75-40.75-40.75z" fill="#fff"/></g></g></svg>
