<svg id="Capa_1" enable-background="new 0 0 512 512" height="512" viewBox="0 0 512 512" width="512" xmlns="http://www.w3.org/2000/svg"><g><path d="m501 261.5c0 135.31-109.69 245-245 245s-245-109.69-245-245 109.69-245 245-245 245 109.69 245 245z" fill="#55a4f9"/><path d="m210 320.5c0-8.284 6.716-15 15-15h140c8.284 0 15 6.716 15 15s-6.716 15-15 15h-140c-8.284 0-15-6.716-15-15zm62.935-244.5h83.079c8.284 0 15-6.716 15-15s-6.716-15-15-15h-83.079c-8.284 0-15 6.716-15 15s6.716 15 15 15zm152.065 289.5h-100c-8.284 0-15 6.716-15 15s6.716 15 15 15h100c8.284 0 15-6.716 15-15s-6.716-15-15-15zm-141.78 71h-109.676c-8.284 0-15 6.716-15 15s6.716 15 15 15h109.676c8.284 0 15-6.716 15-15s-6.715-15-15-15z" fill="#a7d0fc"/><path d="m238.732 360.5v70.667c0 4.142-3.358 7.5-7.5 7.5s-7.5-3.358-7.5-7.5v-70.667c0-4.142 3.358-7.5 7.5-7.5s7.5 3.358 7.5 7.5zm-132.5-7.5c-4.142 0-7.5 3.358-7.5 7.5v70.667c0 4.142 3.358 7.5 7.5 7.5s7.5-3.358 7.5-7.5v-70.667c0-4.142-3.358-7.5-7.5-7.5zm276.703-195.845c-4.142 0-7.5 3.358-7.5 7.5v70.667c0 4.142 3.358 7.5 7.5 7.5s7.5-3.358 7.5-7.5v-70.667c0-4.142-3.358-7.5-7.5-7.5zm60 0c-4.142 0-7.5 3.358-7.5 7.5v70.667c0 4.142 3.358 7.5 7.5 7.5s7.5-3.358 7.5-7.5v-70.667c0-4.142-3.358-7.5-7.5-7.5z" fill="#0a3575"/><path d="m291.503 234.843c22.562-8.291 44.218 14.538 34.611 36.572-4.362 10.005-9.994 19.716-16.916 28.952l-68.377 91.247c-4.309 5.749-11.073 9.134-18.258 9.134h-35.389c-10.823-8.508-26.061-8.508-36.884 0h-35.389c-7.185 0-13.949-3.384-18.258-9.133l-68.377-91.247c-7.277-9.71-13.128-19.945-17.577-30.494-9.095-21.564 11.773-43.794 33.699-35.614 78.715 29.366 168.256 29.561 247.115.583z" fill="#c50048"/><path d="m326.079 271.495c-6.362 14.565-20.722 24.005-36.616 24.005-24.637 0-43.288-22.083-39.376-46.408 7.973-49.578-2.038-103.048-28.652-140.738-14.867-21.054-33.023-34.612-52.126-40.673 43.057.129 86.069 14.697 118.733 43.706 48.026 42.653 61.791 105.725 38.037 160.108zm-276.657-160.108c-48.026 42.653-61.791 105.725-38.037 160.108 6.362 14.565 20.722 24.005 36.616 24.005 24.637 0 43.288-22.083 39.376-46.408-7.973-49.578 2.038-103.048 28.652-140.738 14.867-21.054 33.023-34.612 52.126-40.673-43.057.128-86.068 14.697-118.733 43.706z" fill="#f44545"/><path d="m234.841 299.315-47.667 101.433h-36.884l-47.667-101.433c-28.22-60.05-22.61-139.955 13.407-190.961 15.016-21.266 33.388-34.884 52.702-40.854 19.314 5.97 37.686 19.588 52.702 40.854 36.017 51.006 41.626 130.911 13.407 190.961z" fill="#ffc14f"/><path d="m168.732 295.5c-47.088 0-85.206-38.725-83.943-85.797.996-37.107 11.595-73.527 31.241-101.349 15.016-21.266 33.388-34.884 52.702-40.854 19.314 5.97 37.686 19.588 52.702 40.854 19.646 27.822 30.245 64.243 31.241 101.349 1.263 47.072-36.855 85.797-83.943 85.797z" fill="#fff36c"/><path d="m112.732 437.5h30v41.301c-10.467-5.467-20.49-11.668-30-18.535zm264.203-195.845v43c0 8.284 6.716 15 15 15h21c8.284 0 15-6.716 15-15v-43z" fill="#453d83"/><path d="m134.732 437.5h90v43c0 8.284-6.716 15-15 15h-26.54c-17.024-5.291-33.252-12.389-48.46-21.069zm265.268-195.845v43c0 8.284 6.716 15 15 15h18.935c8.284 0 15-6.716 15-15v-43z" fill="#5f55af"/><path d="m243.544 435.917c0 4.142-3.358 7.5-7.5 7.5h-134.625c-4.142 0-7.5-3.358-7.5-7.5s3.358-7.5 7.5-7.5h134.625c4.142 0 7.5 3.357 7.5 7.5zm215.641-203.346h-92.5c-4.142 0-7.5 3.358-7.5 7.5s3.358 7.5 7.5 7.5h92.5c4.142 0 7.5-3.358 7.5-7.5s-3.358-7.5-7.5-7.5z" fill="#fff5f5"/><path d="m381.33 201.155c-4.218 0-8.19-1.987-10.72-5.362l-40.145-53.572c-26.146-34.891-20.948-81.317 12.421-110.953 38.527-34.216 101.57-34.216 140.097 0 33.37 29.636 38.567 76.062 12.421 110.953l-40.145 53.572c-2.53 3.376-6.501 5.362-10.72 5.362h-20.778l-1.376-1.106c-6.051-4.863-14.794-4.387-20.28 1.106z" fill="#453d83"/><path d="m483.955 116.5c-15.011 0-27.427-11.908-27.797-26.915-.54-21.925-5.995-43.432-16.083-59.873-7.733-12.603-17.194-20.674-27.14-24.212 25.393 0 50.785 8.554 70.048 25.662 17.061 15.152 26.757 34.692 28.667 54.836 1.549 16.35-11.271 30.502-27.695 30.502zm-141.069-85.338c-17.061 15.152-26.757 34.692-28.667 54.836-1.549 16.35 11.271 30.502 27.695 30.502 15.011 0 27.427-11.908 27.797-26.915.54-21.925 5.995-43.432 16.083-59.873 7.733-12.603 17.194-20.674 27.14-24.212-25.392 0-50.784 8.554-70.048 25.662z" fill="#51489a"/><path d="m451.748 141.602-27.986 59.553h-21.655l-27.986-59.553c-16.568-35.256-13.275-82.17 7.871-112.116 8.817-12.486 19.603-20.481 30.943-23.986 11.339 3.505 22.126 11.5 30.942 23.986 21.146 29.946 24.44 76.86 7.871 112.116z" fill="#ffa90b"/><path d="m412.935 121.167c-30.505 0-53.117-28.581-45.807-58.196 3.034-12.294 8.012-23.78 14.865-33.484 8.816-12.487 19.602-20.482 30.942-23.987 11.339 3.505 22.126 11.5 30.942 23.986 6.852 9.704 11.83 21.19 14.865 33.484 7.31 29.616-15.303 58.197-45.807 58.197z" fill="#ffc14f"/></g></svg>