<svg id="Layer_1" enable-background="new 0 0 128 128" height="512" viewBox="0 0 128 128" width="512" xmlns="http://www.w3.org/2000/svg"><path d="m97.161 99.479s-6.248-9.207-6.248-9.207c-.427-.628-1.063-1.091-1.791-1.306l-16.514-4.857c-.411-.121-.715-.472-.775-.896l-2.885-20.194c1.819.676 3.977.196 5.409-1.376l3.034-3.334 6.021 5.406-5.232 2.893c-2.661 1.472-3.628 4.833-2.156 7.493l4.257 7.696c.687 1.243 1.881 2.113 3.276 2.387.306.06.616.09.923.09 1.09 0 2.16-.373 3.034-1.077 1.781-1.431 2.24-4.11 1.067-6.231l-2.177-3.937 3.885-2.149c2.485-1.373 4.256-3.752 4.861-6.525l.096-.441 6.42 20.086c.149.465.579.762 1.043.762.111 0 .223-.017.334-.052.576-.185.894-.801.71-1.377l-6.716-21.01 4.146-2.304c2.313-1.323 3.119-4.281 1.796-6.594l-4.811-8.416c-.054-.095-.122-.178-.2-.248-.77-1.355-2.047-2.308-3.511-2.626l-.642-.177c.158-.083.319-.16.472-.257 1.347-.863 2.277-2.199 2.619-3.762s.055-3.165-.809-4.512-2.2-2.277-3.762-2.619c-1.563-.34-3.165-.053-4.512.809-1.347.863-2.277 2.199-2.619 3.762-.344 1.573-.029 3.138.754 4.412l-9.036-2.493c-.433-.094-.861-.099-1.28-.061l-30.636-25.319c-.584-.998-1.662-1.633-2.83-1.633h-16.134c-1.812 0-3.286 1.474-3.286 3.286v105.143c0 1.812 1.474 3.286 3.286 3.286h80.2c1.219 0 2.332-.67 2.903-1.747.571-1.078.501-2.374-.184-3.384zm-25.287-58.942c-.499 2.284.952 4.547 3.13 5.018l8.399 2.736-.455 2.103-2.153-1.959c-2.234-2.032-5.704-1.869-7.736.365l-5.945 6.535c-.878.965-1.327 2.263-1.236 3.565l-14.107-11.46c-.295-.24-.443-.608-.396-.986l1.961-15.689c.077-.618-.022-1.242-.287-1.806l-5.816-12.358 26.107 21.576c-.713.584-1.254 1.39-1.466 2.36z" fill="#e6e7e8"/><path d="m21.661 7h16.134c.849 0 1.621.49 1.982 1.258l7.9 16.787c.177.375.243.793.192 1.204l-1.961 15.688c-.094.75.206 1.495.792 1.972l16.58 13.472 3.087 21.606c.121.849.727 1.55 1.55 1.792l16.514 4.857c.487.143.909.451 1.194.872l18.048 26.596c.987 1.454-.055 3.42-1.813 3.42h-80.2c-1.21 0-2.19-.981-2.19-2.19v-105.144c.001-1.209.982-2.19 2.191-2.19z" fill="#fa759e"/><path d="m22.757 114.333v-105.143c0-1.21.981-2.19 2.19-2.19h-3.286c-1.21 0-2.19.981-2.19 2.19v105.143c0 1.21.981 2.19 2.19 2.19h3.286c-1.21.001-2.19-.98-2.19-2.19z" fill="#fff"/><ellipse cx="86.673" cy="32.278" fill="#6dc9f7" rx="4.894" ry="4.894" transform="matrix(.842 -.54 .54 .842 -3.715 51.877)"/><path d="m63.941 57.057c1.553 1.271 3.874.952 5.224-.532l3.766-4.139 7.976 7.161-6.579 3.638c-2.136 1.181-2.909 3.87-1.728 6.005l4.257 7.696c1.095 1.981 3.738 2.565 5.588 1.078 1.43-1.149 1.683-3.242.795-4.847l-2.707-4.895 4.844-2.678c2.208-1.221 3.783-3.335 4.321-5.8l.35-1.605 6.209-3.451c1.792-1.025 2.414-3.308 1.39-5.1l-4.812-8.416-.055.031c-.564-1.173-1.627-2.092-2.997-2.392l-17.477-4.823c-1.696-.371-3.371.703-3.742 2.399l-.001.005c-.371 1.696.703 3.371 2.399 3.742l9.34 3.043-1.065 4.928-3.559-3.239c-1.79-1.628-4.561-1.498-6.189.292l-5.945 6.535c-1.423 1.562-1.259 4.009.397 5.364z" fill="#6dc9f7"/><g fill="#3a2c60"><path d="m104.501 112.542-3.695-5.445c-.31-.458-.933-.576-1.389-.266-.457.31-.576.932-.266 1.389l3.695 5.445c.252.371.277.83.067 1.226s-.603.633-1.052.633h-80.2c-.656 0-1.19-.534-1.19-1.19v-105.144c0-.656.534-1.19 1.19-1.19h16.134c.459 0 .882.269 1.077.684l7.899 16.787c.096.205.132.431.104.655l-1.961 15.688c-.138 1.099.294 2.173 1.154 2.872l16.278 13.224 3.031 21.218c.176 1.233 1.062 2.258 2.258 2.61l16.515 4.857c.264.078.495.246.649.473l3.213 4.736c.31.457.932.577 1.389.266.457-.31.576-.932.266-1.389l-3.214-4.736c-.415-.61-1.032-1.061-1.74-1.269l-16.513-4.857c-.446-.131-.777-.513-.843-.974l-2.908-20.356c1.814.75 4.011.297 5.456-1.292l3.097-3.404 6.191 5.559-5.349 2.958c-2.615 1.446-3.565 4.75-2.119 7.364l4.257 7.695c.674 1.218 1.844 2.071 3.211 2.34.3.059.603.088.904.088 1.068 0 2.117-.366 2.975-1.055 1.746-1.403 2.195-4.03 1.044-6.111l-2.223-4.02 3.969-2.194c2.46-1.36 4.214-3.716 4.814-6.462l.172-.787 6.528 20.421c.136.425.529.696.953.696.101 0 .203-.016.305-.048.526-.168.816-.731.648-1.257l-6.74-21.084 4.213-2.342c2.268-1.296 3.058-4.196 1.762-6.464l-4.812-8.416c-.052-.091-.117-.169-.193-.234-.756-1.338-2.015-2.279-3.461-2.594l-.894-.247c1.607-.752 2.868-2.198 3.276-4.061.694-3.175-1.323-6.323-4.498-7.018-1.538-.335-3.114-.054-4.44.796-1.325.85-2.24 2.165-2.577 3.703-.336 1.538-.054 3.114.796 4.439.026.04.061.072.088.111l-9.279-2.56c-.436-.095-.868-.098-1.29-.056l-30.681-25.353c-.566-.977-1.616-1.6-2.757-1.6h-16.133c-1.759 0-3.19 1.431-3.19 3.19v105.143c0 1.759 1.431 3.19 3.19 3.19h80.2c1.184 0 2.265-.65 2.819-1.697.554-1.045.485-2.304-.18-3.284zm-21.631-81.096c.222-1.016.827-1.885 1.702-2.446.635-.407 1.357-.617 2.093-.617.279 0 .561.03.84.091 2.098.458 3.431 2.539 2.972 4.636-.458 2.098-2.539 3.428-4.636 2.971-1.016-.222-1.885-.827-2.446-1.702s-.748-1.917-.525-2.933zm6.7 8.341c1.009.221 1.851.895 2.31 1.849.057.117.141.217.241.299l4.658 8.148c.75 1.311.292 2.987-1.007 3.73l-4.274 2.376.951-4.359.213-.118c.234-.129.407-.348.479-.605s.038-.534-.095-.766l-.388-.679c-.205-.36-.61-.557-1.02-.492-.409.062-.737.371-.826.775l-.222 1.016v.001l-1.519 6.965-.35 1.604c-.477 2.184-1.872 4.057-3.828 5.139l-4.844 2.678c-.232.128-.404.343-.477.598s-.042.529.086.761l2.707 4.895c.687 1.242.451 2.782-.547 3.584-.647.52-1.441.723-2.24.563-.787-.155-1.459-.645-1.847-1.346l-4.257-7.695c-.442-.799-.546-1.723-.294-2.6s.832-1.604 1.631-2.046l6.579-3.638c.283-.156.473-.44.51-.762s-.085-.641-.326-.857l-7.976-7.162c-.191-.171-.43-.256-.667-.256-.272 0-.543.11-.74.327l-3.766 4.139c-1.031 1.133-2.758 1.326-3.852.432-.583-.477-.934-1.151-.988-1.898-.055-.748.192-1.465.697-2.019l5.945-6.535c.608-.668 1.439-1.059 2.341-1.102.896-.05 1.767.268 2.435.876l3.559 3.239c.002.002.004.002.006.004.001.001.001.002.003.003l3.448 3.068c.19.169.428.253.664.253.276 0 .55-.113.748-.335.367-.413.33-1.044-.083-1.412l-3.012-2.68.702-3.245.681.243c.111.04.224.059.335.059.411 0 .796-.255.942-.665.186-.52-.086-1.092-.606-1.277l-1.754-.625c-.004-.002-.009 0-.013-.002-.005-.002-.008-.005-.013-.007l-9.436-3.069c-1.155-.252-1.889-1.397-1.635-2.557.252-1.155 1.4-1.89 2.5-1.649zm-21.425-.488c.597.932 1.521 1.575 2.507 1.785l8.481 2.763-.508 2.35-2.275-2.071c-2.194-1.997-5.604-1.836-7.602.359l-5.945 6.535c-.864.95-1.306 2.229-1.212 3.511.005.075.03.145.039.22l-14.3-11.618c-.321-.261-.482-.662-.431-1.072l1.961-15.689c.075-.6-.021-1.207-.279-1.754l-5.997-12.743 26.527 21.923c-.744.575-1.309 1.389-1.526 2.379-.235 1.081-.037 2.19.56 3.122z"/><path d="m91.311 94.885c-.457.31-.576.932-.266 1.389l4.314 6.358c.193.285.508.438.829.438.193 0 .389-.056.561-.172.457-.31.576-.932.266-1.389l-4.314-6.358c-.31-.457-.933-.575-1.39-.266z"/></g></svg>