<svg id="Layer_5" enable-background="new 0 0 64 64" height="512" viewBox="0 0 64 64" width="512" xmlns="http://www.w3.org/2000/svg"><g><g><g><path d="m26 28h29c.34 0 .68-.02 1-.08v32.08c0 1.1-.9 2-2 2h-50c-1.1 0-2-.9-2-2v-36h17.07c1.38 2.39 3.97 4 6.93 4z" fill="#f0d0b4"/></g><g><path d="m2 24v-6c0-1.1.9-2 2-2h15.07c-.68 1.17-1.07 2.54-1.07 4s.39 2.83 1.07 4z" fill="#b4dd7f"/></g><g><path d="m19.07 16c.9-1.54 2.29-2.75 3.96-3.42-.01-.2-.03-.39-.03-.58 0-5.52 4.48-10 10-10 4.09 0 7.61 2.46 9.16 5.98 1.14-.62 2.45-.98 3.84-.98 4.11 0 7.49 3.1 7.94 7.09.35-.05.7-.09 1.06-.09 3.87 0 7 3.13 7 7 0 3.53-2.6 6.44-6 6.92-.32.06-.66.08-1 .08h-29c-2.96 0-5.55-1.61-6.93-4-.68-1.17-1.07-2.54-1.07-4s.39-2.83 1.07-4z" fill="#e6e9ed"/></g><g><path d="m52 47v4l-1.39.47c-.13.4-.3.79-.48 1.15l.65 1.33-2.83 2.83-1.33-.65c-.36.18-.75.35-1.15.48l-.47 1.39h-4l-.47-1.39c-.4-.13-.79-.3-1.15-.48l-1.33.65-2.83-2.83.65-1.33c-.18-.36-.35-.75-.48-1.15l-1.39-.47v-4l1.39-.47c.13-.4.3-.79.48-1.15l-.65-1.33 2.83-2.83 1.33.65c.36-.18.75-.35 1.15-.48l.47-1.39h4l.47 1.39c.4.13.79.3 1.15.48l1.33-.65 2.83 2.83-.65 1.33c.18.36.35.75.48 1.15zm-5 2c0-2.21-1.79-4-4-4s-4 1.79-4 4 1.79 4 4 4 4-1.79 4-4z" fill="#fcd770"/></g></g><g><path d="m40.293 11.707 5.293 5.293-5.293 5.293 1.414 1.414 6.707-6.707-6.707-6.707z"/><path d="m34.293 10.293-6.707 6.707 6.707 6.707 1.414-1.414-5.293-5.293 5.293-5.293z"/><path d="m29.938 16h16.125v2h-16.125z" transform="matrix(.124 -.992 .992 .124 16.418 52.598)"/><path d="m51.236 45.384.755-1.535-3.84-3.84-1.535.755c-.116-.052-.233-.101-.35-.146l-.55-1.618h-5.432l-.551 1.617c-.116.046-.233.095-.35.146l-1.535-.755-3.84 3.84.755 1.535c-.052.116-.101.233-.146.35l-1.617.551v5.432l1.617.551c.046.116.095.233.146.35l-.755 1.533 3.84 3.842 1.535-.755c.116.052.233.101.35.146l.551 1.617h5.432l.551-1.617c.116-.046.233-.095.35-.146l1.535.755 3.84-3.842-.755-1.533c.052-.116.101-.233.146-.35l1.617-.551v-5.432l-1.617-.551c-.046-.116-.095-.233-.147-.349zm-.236 4.9-1.19.405-.155.476c-.108.334-.25.672-.419 1.005l-.228.446.558 1.133-1.816 1.816-1.133-.558-.446.228c-.333.169-.671.311-1.005.419l-.476.155-.406 1.191h-2.568l-.405-1.19-.476-.155c-.334-.108-.672-.25-1.005-.419l-.446-.228-1.133.558-1.816-1.816.558-1.133-.228-.446c-.169-.333-.311-.671-.419-1.005l-.155-.476-1.191-.406v-2.568l1.19-.405.155-.476c.108-.334.25-.672.419-1.005l.228-.446-.558-1.133 1.816-1.816 1.133.558.446-.228c.333-.169.671-.311 1.005-.419l.476-.155.406-1.191h2.568l.405 1.19.476.155c.334.108.672.25 1.005.419l.446.228 1.133-.558 1.816 1.816-.558 1.133.228.446c.169.333.311.671.419 1.005l.155.476 1.191.406z"/><path d="m43 44c-2.757 0-5 2.243-5 5s2.243 5 5 5 5-2.243 5-5-2.243-5-5-5zm0 8c-1.654 0-3-1.346-3-3s1.346-3 3-3 3 1.346 3 3-1.346 3-3 3z"/><path d="m5 19h2v2h-2z"/><path d="m13 19h2v2h-2z"/><path d="m9 19h2v2h-2z"/><path d="m8 31c-1.654 0-3 1.346-3 3v4c0 1.654 1.346 3 3 3s3-1.346 3-3v-4c0-1.654-1.346-3-3-3zm1 7c0 .552-.448 1-1 1s-1-.448-1-1v-4c0-.552.448-1 1-1s1 .448 1 1z"/><path d="m19 38v-4c0-1.654-1.346-3-3-3s-3 1.346-3 3v4c0 1.654 1.346 3 3 3s3-1.346 3-3zm-2 0c0 .552-.448 1-1 1s-1-.448-1-1v-4c0-.552.448-1 1-1s1 .448 1 1z"/><path d="m25 31h2v10h-2z"/><path d="m21 31h2v10h-2z"/><path d="m8 43c-1.654 0-3 1.346-3 3v4c0 1.654 1.346 3 3 3s3-1.346 3-3v-4c0-1.654-1.346-3-3-3zm1 7c0 .552-.448 1-1 1s-1-.448-1-1v-4c0-.552.448-1 1-1s1 .448 1 1z"/><path d="m13 43h2v10h-2z"/><path d="m20 43c-1.654 0-3 1.346-3 3v4c0 1.654 1.346 3 3 3s3-1.346 3-3v-4c0-1.654-1.346-3-3-3zm1 7c0 .552-.448 1-1 1s-1-.448-1-1v-4c0-.552.448-1 1-1s1 .448 1 1z"/><path d="m25 43h2v10h-2z"/><path d="m31 31h22v2h-22z"/><path d="m51 35h2v2h-2z"/><path d="m31 35h18v2h-18z"/><path d="m9 57h2v2h-2z"/><path d="m13 57h2v2h-2z"/><path d="m5 57h2v2h-2z"/><path d="m63 21c0-4.486-3.736-8.144-8.226-7.996-.915-4.055-4.527-7.004-8.774-7.004-1.161 0-2.314.227-3.386.661-1.928-3.47-5.598-5.661-9.614-5.661-6.046 0-10.968 4.903-11 10.941-1.437.711-2.614 1.778-3.472 3.059h-14.528c-1.654 0-3 1.346-3 3v42c0 1.654 1.346 3 3 3h50c1.654 0 3-1.346 3-3v-31.263c3.445-.892 6-4.018 6-7.737zm-59-4h13.532c-.334.947-.532 1.952-.532 3 0 1.053.191 2.06.525 3h-14.525v-5c0-.552.448-1 1-1zm51 43c0 .552-.448 1-1 1h-50c-.552 0-1-.448-1-1v-35h15.522c1.617 2.41 4.365 4 7.478 4h29zm0-33h-29c-3.859 0-7-3.141-7-7 0-2.874 1.728-5.424 4.401-6.495l.667-.268-.053-.898c-.006-.112-.015-.225-.015-.339 0-4.963 4.037-9 9-9 3.567 0 6.802 2.114 8.24 5.387l.438 1 .958-.525c1.027-.564 2.19-.862 3.364-.862 3.561 0 6.549 2.666 6.951 6.201l.116 1.029 1.025-.153c.349-.053.638-.077.908-.077 3.309 0 6 2.691 6 6s-2.691 6-6 6z"/><path d="m33 7v-2c-3.859 0-7 3.141-7 7h2c0-2.757 2.243-5 5-5z"/><path d="m55 23h-2v2h2c2.206 0 4-1.794 4-4h-2c0 1.103-.897 2-2 2z"/><path d="m49 23h2v2h-2z"/><path d="m45 23h2v2h-2z"/></g></g></svg>