<?xml version="1.0" encoding="iso-8859-1"?>
<!-- Generator: Adobe Illustrator 19.0.0, SVG Export Plug-In . SVG Version: 6.00 Build 0)  -->
<svg version="1.1" id="Capa_1" xmlns="http://www.w3.org/2000/svg" xmlns:xlink="http://www.w3.org/1999/xlink" x="0px" y="0px"
	 viewBox="0 0 512 512" style="enable-background:new 0 0 512 512;" xml:space="preserve">
<path style="fill:#424242;" d="M389.792,237.134v-41.447c0-103.931-84.252-188.183-188.183-188.183l0,0
	c-103.931,0-188.183,84.252-188.183,188.183v288.108c0,4.54,3.68,8.22,8.22,8.22h468.706c4.54,0,8.22-3.68,8.22-8.22V337.191
	c0-27.63-22.398-50.028-50.028-50.028h-8.724C412.19,287.162,389.792,264.764,389.792,237.134z"/>
<g>
	<path style="fill:#333333;" d="M448.544,287.162h-8.724c-27.63,0-50.028-22.399-50.028-50.028v-41.446
		c0-103.931-84.252-188.183-188.183-188.183l0,0c-8.896,0-17.644,0.632-26.211,1.826c91.521,12.756,161.972,91.323,161.972,186.357
		v90.273c0,22.769,18.458,41.227,41.227,41.227h26.327c22.769,0,41.227,18.458,41.227,41.227v115.381c0,4.54-3.681,8.22-8.221,8.22
		h52.423c4.54,0,8.22-3.68,8.22-8.22V337.191C498.573,309.561,476.174,287.162,448.544,287.162z"/>
	<path style="fill:#333333;" d="M498.573,400.087H13.425v83.521c0,4.654,3.773,8.427,8.427,8.427h468.294
		c4.654,0,8.427-3.773,8.427-8.427V400.087z"/>
</g>
<path style="fill:#424242;" d="M60.998,400.087H13.425v95.981c0,4.654,3.773,8.427,8.427,8.427h39.146V400.087z"/>
<rect x="37.209" y="400.09" style="fill:#333333;" width="23.786" height="104.41"/>
<path style="fill:#424242;" d="M498.573,400.087h-47.572v104.408h39.146c4.654,0,8.427-3.773,8.427-8.427v-95.981H498.573z"/>
<path style="fill:#333333;" d="M474.786,400.087v95.981c0,4.654-3.773,8.426-8.426,8.426h23.786c4.654,0,8.426-3.773,8.426-8.426
	v-95.981L474.786,400.087L474.786,400.087z"/>
<rect x="60.998" y="390.08" style="fill:#E2D9C5;" width="39" height="101.95"/>
<rect x="99.999" y="390.08" style="fill:#F2EBDA;" width="39" height="101.95"/>
<rect x="138.999" y="390.08" style="fill:#E2D9C5;" width="39" height="101.95"/>
<rect x="177.999" y="390.08" style="fill:#F2EBDA;" width="39" height="101.95"/>
<rect x="216.999" y="390.08" style="fill:#E2D9C5;" width="39" height="101.95"/>
<rect x="255.999" y="390.08" style="fill:#F2EBDA;" width="39" height="101.95"/>
<rect x="294.999" y="390.08" style="fill:#E2D9C5;" width="39" height="101.95"/>
<rect x="333.999" y="390.08" style="fill:#F2EBDA;" width="39" height="101.95"/>
<rect x="372.999" y="390.08" style="fill:#E2D9C5;" width="39" height="101.95"/>
<rect x="411.999" y="390.08" style="fill:#F2EBDA;" width="39" height="101.95"/>
<path style="fill:#424242;" d="M114.207,390.081H85.789v42.123c0,6.51,5.277,11.788,11.788,11.788h4.842
	c6.51,0,11.788-5.277,11.788-11.788C114.207,432.204,114.207,390.081,114.207,390.081z"/>
<path style="fill:#333333;" d="M99.998,390.081v42.123c0,4.845-2.925,9.003-7.104,10.816c1.436,0.623,3.018,0.972,4.683,0.972h4.842
	c6.51,0,11.788-5.277,11.788-11.788v-42.123H99.998z"/>
<g>
	<path style="fill:#424242;" d="M192.207,390.081H163.79v42.123c0,6.51,5.277,11.788,11.788,11.788h4.842
		c6.51,0,11.788-5.277,11.788-11.788L192.207,390.081L192.207,390.081z"/>
	<path style="fill:#424242;" d="M270.208,390.081h-28.417v42.123c0,6.51,5.277,11.788,11.788,11.788h4.842
		c6.51,0,11.788-5.277,11.788-11.788v-42.123H270.208z"/>
	<path style="fill:#424242;" d="M348.208,390.081h-28.417v42.123c0,6.51,5.277,11.788,11.788,11.788h4.842
		c6.51,0,11.788-5.277,11.788-11.788v-42.123H348.208z"/>
	<path style="fill:#424242;" d="M426.209,390.081h-28.417v42.123c0,6.51,5.277,11.788,11.788,11.788h4.842
		c6.51,0,11.788-5.277,11.788-11.788v-42.123H426.209z"/>
</g>
<g>
	<path style="fill:#333333;" d="M177.998,390.081v42.123c0,4.845-2.925,9.003-7.104,10.816c1.436,0.623,3.018,0.972,4.683,0.972
		h4.842c6.51,0,11.788-5.277,11.788-11.788v-42.123H177.998z"/>
	<path style="fill:#333333;" d="M255.999,390.081v42.123c0,4.845-2.925,9.003-7.104,10.816c1.436,0.623,3.018,0.972,4.683,0.972
		h4.842c6.51,0,11.788-5.277,11.788-11.788v-42.123H255.999z"/>
	<path style="fill:#333333;" d="M334,390.081v42.123c0,4.845-2.925,9.003-7.104,10.816c1.436,0.623,3.018,0.972,4.683,0.972h4.842
		c6.51,0,11.788-5.277,11.788-11.788v-42.123H334z"/>
	<path style="fill:#333333;" d="M412,390.081v42.123c0,4.845-2.925,9.003-7.104,10.816c1.436,0.623,3.018,0.972,4.683,0.972h4.842
		c6.51,0,11.788-5.277,11.788-11.788v-42.123H412z"/>
	<rect x="13.425" y="363.5" style="fill:#333333;" width="485.15" height="36.586"/>
</g>
<path d="M448.544,279.658h-8.723c-23.448,0-42.524-19.076-42.524-42.524v-41.446c0-10.958-0.914-21.951-2.716-32.671
	c-0.687-4.087-4.55-6.847-8.645-6.157c-4.087,0.687-6.844,4.557-6.157,8.645c1.664,9.901,2.508,20.056,2.508,30.183v41.446
	c0,31.724,25.81,57.534,57.534,57.534h8.723c23.448,0,42.524,19.076,42.524,42.523v18.806H93.532c-4.145,0-7.505,3.36-7.505,7.505
	c0,4.145,3.359,7.505,7.505,7.505h397.536v21.577H451.01c-0.003,0-0.006,0-0.01,0h-24.791c-0.003,0-0.006,0-0.01,0h-28.397
	c-0.003,0-0.006,0-0.01,0H373h-24.792c-0.003,0-0.006,0-0.01,0h-28.397c-0.003,0-0.006,0-0.01,0h-24.792h-24.792
	c-0.003,0-0.006,0-0.01,0h-28.398c-0.003,0-0.006,0-0.01,0h-24.792h-24.792c-0.003,0-0.006,0-0.01,0h-28.397
	c-0.003,0-0.006,0-0.01,0h-24.792h-24.792c-0.003,0-0.006,0-0.01,0H85.799c-0.003,0-0.006,0-0.01,0H60.998c-0.003,0-0.006,0-0.01,0
	H20.93v-21.577h37.679c4.145,0,7.505-3.36,7.505-7.505c0-4.145-3.359-7.505-7.505-7.505H20.93v-160.31
	c0-99.626,81.052-180.678,180.679-180.678c37.538,0,73.529,11.401,104.081,32.971c29.89,21.102,52.435,50.287,65.198,84.401
	c1.453,3.882,5.779,5.851,9.658,4.399c3.882-1.453,5.851-5.777,4.399-9.659c-13.825-36.949-38.237-68.555-70.599-91.403
	C281.248,12.351,242.263,0,201.608,0C93.706,0,5.921,87.785,5.921,195.687v167.814v36.587v95.981
	c0,8.785,7.146,15.931,15.931,15.931h39.146c4.145,0,7.505-3.36,7.505-7.505v-4.956h31.496h39h39h39h39H295h39h39.001h39h31.496
	v4.956c0,4.145,3.359,7.505,7.505,7.505h39.146c8.785,0,15.931-7.146,15.931-15.931v-95.981v-36.587V337.19
	C506.077,305.467,480.267,279.658,448.544,279.658z M53.493,492.035v4.956H21.852c-0.508,0-0.921-0.413-0.921-0.922v-88.476h32.563
	v84.442H53.493z M92.494,484.53H68.502v-76.938h9.782v24.612c0,8.879,6.03,16.376,14.209,18.613v33.713H92.494z M106.702,432.204
	c0,2.362-1.921,4.283-4.283,4.283h-2.42h-2.421c-2.362,0-4.283-1.921-4.283-4.283v-24.612h13.408v24.612H106.702z M131.493,484.53
	h-23.99v-33.714c8.179-2.237,14.208-9.734,14.208-18.613v-24.612h9.782V484.53z M170.494,484.53h-23.991v-76.938h9.782v24.612
	c0,8.879,6.03,16.376,14.209,18.613V484.53z M184.702,432.204c0,2.362-1.921,4.283-4.283,4.283h-2.42h-2.421
	c-2.362,0-4.283-1.921-4.283-4.283v-24.612h13.408L184.702,432.204L184.702,432.204z M209.494,484.53h-23.99v-33.714
	c8.179-2.237,14.208-9.734,14.208-18.613v-24.612h9.782L209.494,484.53L209.494,484.53z M248.494,484.53h-23.991v-76.938h9.782
	v24.612c0,8.879,6.03,16.376,14.209,18.613V484.53z M262.703,432.204c0,2.362-1.921,4.283-4.283,4.283h-2.421h-2.421
	c-2.362,0-4.283-1.921-4.283-4.283v-24.612h13.409L262.703,432.204L262.703,432.204z M287.495,484.53h-23.991v-33.714
	c8.179-2.236,14.209-9.734,14.209-18.613v-24.612h9.782V484.53z M326.495,484.53h-23.99v-76.938h9.782v24.612
	c0,8.879,6.029,16.376,14.208,18.613L326.495,484.53L326.495,484.53z M340.704,432.204c0,2.362-1.921,4.283-4.283,4.283h-2.422
	h-2.42c-2.362,0-4.283-1.921-4.283-4.283v-24.612h13.408V432.204z M365.495,484.53h-23.991v-33.714
	c8.179-2.236,14.209-9.734,14.209-18.613v-24.612h9.782V484.53z M404.495,484.53h-23.99v-76.938h9.782v24.612
	c0,8.879,6.029,16.376,14.208,18.613L404.495,484.53L404.495,484.53z M418.704,432.204c0,2.362-1.921,4.283-4.283,4.283H412h-2.42
	c-2.362,0-4.283-1.921-4.283-4.283v-24.612h13.408v24.612H418.704z M443.496,484.53h-23.991v-33.714
	c8.179-2.236,14.209-9.734,14.209-18.613v-24.612h9.782L443.496,484.53L443.496,484.53z M491.068,496.069
	c0,0.509-0.413,0.922-0.921,0.922h-31.642v-4.956v-84.443h32.563V496.069z"/>
<g>
</g>
<g>
</g>
<g>
</g>
<g>
</g>
<g>
</g>
<g>
</g>
<g>
</g>
<g>
</g>
<g>
</g>
<g>
</g>
<g>
</g>
<g>
</g>
<g>
</g>
<g>
</g>
<g>
</g>
</svg>
