<svg height="512pt" viewBox="-76 0 512 512" width="512pt" xmlns="http://www.w3.org/2000/svg"><path d="m180 7.5v90c24.851562 0 45-20.148438 45-45s-20.148438-45-45-45zm0 0" fill="#ffb4a9"/><path d="m195 52.5c0-24.851562-6.714844-45-15-45-24.851562 0-45 20.148438-45 45s20.148438 45 45 45c8.285156 0 15-20.148438 15-45zm0 0" fill="#ffd9d0"/><path d="m180 217.5v75c24.851562 0 45-20.148438 45-45zm0 0" fill="#999"/><path d="m195 247.5-15-30-45 30c0 24.851562 20.148438 45 45 45 8.285156 0 15-20.148438 15-45zm0 0" fill="#b3b3b3"/><path d="m220 127.5h-30l-25 75 30 45h30v-45c8.027344-6.03125 13.609375-15.136719 15-25.570312v-29.429688c0-11.046875-8.953125-20-20-20zm0 0" fill="#ccc"/><path d="m210 176.929688v-29.429688c0-11.046875-8.953125-20-20-20h-50c-11.046875 0-20 8.953125-20 20v29.429688c1.390625 10.433593 6.972656 19.539062 15 25.570312v45h60v-45c8.027344-6.03125 13.609375-15.136719 15-25.570312zm0 0" fill="#ebebeb"/><path d="m60 232.5v262l30-20v-242zm0 0" fill="#ccc"/><path d="m90 232.5c0 8.285156-6.714844 15-15 15s-15-6.714844-15-15 6.714844-15 15-15 15 6.714844 15 15zm0 0" fill="#cccccc"/><path d="m30 474.5c-8.285156 0-15 6.714844-15 15v15h75v-30zm0 0" fill="#b3b3b3"/><path d="m300 232.5v262l-30-20v-242zm0 0" fill="#ccc"/><path d="m300 232.5c0 8.285156-6.714844 15-15 15s-15-6.714844-15-15 6.714844-15 15-15 15 6.714844 15 15zm0 0" fill="#cccccc"/><path d="m330 474.5c8.285156 0 15 6.714844 15 15v15h-75v-30zm0 0" fill="#b3b3b3"/><path style="fill:#314E55;" d="m165 67.800781c5.441406 0 10.671875-1.726562 15-4.8125 4.328125 3.085938 9.558594 4.8125 15 4.8125 4.140625 0 7.5-3.359375 7.5-7.5 0-4.144531-3.359375-7.5-7.5-7.5-3.519531 0-6.832031-1.726562-8.867188-4.617187-1.402343-1.996094-3.691406-3.183594-6.132812-3.183594s-4.730469 1.1875-6.132812 3.183594c-2.035157 2.890625-5.347657 4.617187-8.867188 4.617187-4.140625 0-7.5 3.355469-7.5 7.5 0 4.140625 3.359375 7.5 7.5 7.5zm0 0"/><path d="m180 105c28.949219 0 52.5-23.550781 52.5-52.5s-23.550781-52.5-52.5-52.5-52.5 23.550781-52.5 52.5 23.550781 52.5 52.5 52.5zm0-90c20.679688 0 37.5 16.820312 37.5 37.5s-16.820312 37.5-37.5 37.5-37.5-16.820312-37.5-37.5 16.820312-37.5 37.5-37.5zm0 0" style="fill:#314E55;"/><path style="fill:#314E55;" d="m337.5 467h-30v-234.5c0-9.777344-6.269531-18.113281-15-21.210938v-33.789062c0-20.679688-16.820312-37.5-37.5-37.5h-8.546875c-3.273437-11.527344-13.890625-20-26.453125-20h-80c-12.5625 0-23.179688 8.472656-26.453125 20h-8.546875c-20.679688 0-37.5 16.820312-37.5 37.5v33.789062c-8.730469 3.097657-15 11.433594-15 21.210938v234.5h-30c-12.40625 0-22.5 10.09375-22.5 22.5v15c0 4.144531 3.359375 7.5 7.5 7.5h82.5c4.140625 0 7.5-3.355469 7.5-7.5v-52.5h165v52.5c0 4.144531 3.359375 7.5 7.5 7.5h82.5c4.140625 0 7.5-3.355469 7.5-7.5v-15c0-12.40625-10.09375-22.5-22.5-22.5zm-60 0v-213.289062c2.347656.832031 4.871094 1.289062 7.5 1.289062s5.152344-.457031 7.5-1.289062v213.289062zm7.5-242c4.136719 0 7.5 3.363281 7.5 7.5s-3.363281 7.5-7.5 7.5-7.5-3.363281-7.5-7.5 3.363281-7.5 7.5-7.5zm-145-90h80c6.894531 0 12.5 5.605469 12.5 12.5v28.902344c-1.1875 7.941406-5.542969 15.246094-12.003906 20.101562-1.886719 1.417969-2.996094 3.636719-2.996094 5.996094v37.5h-75v-37.5c0-2.359375-1.109375-4.578125-2.996094-5.996094-6.460937-4.855468-10.820312-12.160156-12.003906-20.101562v-28.902344c0-6.894531 5.605469-12.5 12.5-12.5zm17.5 159.925781c6.824219 3.25 14.453125 5.074219 22.5 5.074219s15.675781-1.824219 22.5-5.074219v49.03125l-22.5 18.5-22.5-18.5zm22.5-9.925781c-18.109375 0-33.261719-12.902344-36.746094-30h73.492188c-3.484375 17.097656-18.636719 30-36.746094 30zm-105-60c4.136719 0 7.5 3.363281 7.5 7.5s-3.363281 7.5-7.5 7.5-7.5-3.363281-7.5-7.5 3.363281-7.5 7.5-7.5zm7.5 272h-67.5v-7.5c0-4.136719 3.363281-7.5 7.5-7.5h60zm0-30h-15v-213.289062c2.347656.832031 4.871094 1.289062 7.5 1.289062s5.152344-.457031 7.5-1.289062zm15-30v-204.5c0-9.777344-6.269531-18.113281-15-21.210938v-33.789062c0-12.40625 10.09375-22.5 22.5-22.5h7.5v21.929688c0 .332031.023438.660156.066406.992187 1.441406 10.800781 6.816406 20.855469 14.933594 28.117187v41.460938c0 14.269531 5.730469 27.21875 15 36.691406v63.308594c0 2.242188 1.003906 4.367188 2.738281 5.792969l22.953125 18.875-7.953125 6.539062c-1.734375 1.425781-2.738281 3.550781-2.738281 5.792969v30c0 4.144531 3.359375 7.5 7.5 7.5s7.5-3.355469 7.5-7.5v-26.457031l7.5-6.167969 7.5 6.167969v26.457031c0 4.144531 3.359375 7.5 7.5 7.5s7.5-3.355469 7.5-7.5v-30c0-2.242188-1.003906-4.367188-2.738281-5.792969l-7.953125-6.539062 22.953125-18.875c1.734375-1.425781 2.738281-3.550781 2.738281-5.792969v-63.308594c9.269531-9.472656 15-22.421875 15-36.691406v-41.460938c8.117188-7.261718 13.492188-17.316406 14.933594-28.117187.042968-.332031.066406-.660156.066406-.992187v-21.929688h7.5c12.40625 0 22.5 10.09375 22.5 22.5v33.789062c-8.730469 3.097657-15 11.433594-15 21.210938v204.5zm247.5 60h-67.5v-15h60c4.136719 0 7.5 3.363281 7.5 7.5zm0 0"/></svg>
