<svg id="Layer_5" enable-background="new 0 0 64 64" height="512" viewBox="0 0 64 64" width="512" xmlns="http://www.w3.org/2000/svg"><g><g><g><path d="m34 30v6h-6v-2h-20v2h-6v-6h5 4 4 6 4 4z" fill="#aab2bd"/></g><g><path d="m12 50c0 1.1.9 2 2 2h-2-4v-16-2h20v2 6 3 5c0 1.1.9 2 2 2h-4-4c1.1 0 2-.9 2-2v-8c0-1.1-.9-2-2-2h-2-4-2c-1.1 0-2 .9-2 2z" fill="#e6e9ed"/></g><g><path d="m57 52h-49-1c-1.38 0-2.63.56-3.54 1.46-.9.91-1.46 2.16-1.46 3.54 0 2.76 2.24 5 5 5h50c1.38 0 2.63-.56 3.54-1.46.9-.91 1.46-2.16 1.46-3.54 0-2.76-2.24-5-5-5z" fill="#ccd1d9"/></g><g><circle cx="12" cy="57" fill="#969faa" r="4"/></g><g><circle cx="26" cy="57" fill="#969faa" r="4"/></g><g><circle cx="40" cy="57" fill="#969faa" r="4"/></g><g><circle cx="52" cy="57" fill="#969faa" r="4"/></g><g><path d="m24 42v8c0 1.1-.9 2-2 2h-8c-1.1 0-2-.9-2-2v-8c0-1.1.9-2 2-2h2v4h4v-4h2c1.1 0 2 .9 2 2z" fill="#d3a06c"/></g><g><path d="m40 42v8c0 1.1-.9 2-2 2h-8c-1.1 0-2-.9-2-2v-5-3c0-1.1.9-2 2-2h2v4h4v-4h2c1.1 0 2 .9 2 2z" fill="#d3a06c"/></g><g><path d="m58 38v8c0 1.1-.9 2-2 2h-8c-1.1 0-2-.9-2-2v-8c0-1.1.9-2 2-2h2v4h4v-4h2c1.1 0 2 .9 2 2z" fill="#d3a06c"/></g><g><path d="m16 40h4v4h-4z" fill="#b27946"/></g><g><path d="m32 40h4v4h-4z" fill="#b27946"/></g><g><path d="m50 36h4v4h-4z" fill="#b27946"/></g><g><path d="m55 23c0 .31-.05.62-.14.9-.38 1.22-1.51 2.1-2.86 2.1s-2.48-.88-2.86-2.1c-.09-.28-.14-.59-.14-.9 0-1.66 1.34-3 3-3s3 1.34 3 3z" fill="#ff826e"/></g><g><path d="m22 11h-1c-2.03 0-2.69-1.84-2.9-3.02l-.1.02h-2l-.34.17c-1.02.51-1.66 1.55-1.66 2.68v.15h-1c-.5 0-.96.18-1.31.49-.44-.89-.69-1.89-.69-2.93 0-3.62 2.94-6.56 6.56-6.56h.88c1.81 0 3.45.74 4.64 1.92 1.18 1.19 1.92 2.83 1.92 4.64 0 1.04-.25 2.04-.69 2.93-.35-.31-.81-.49-1.31-.49z" fill="#656d78"/></g><g><path d="m11 26v4h-4v-1c0-3.11 1.57-5.88 4-7.51z" fill="#ffeaa7"/></g><g><path d="m21 26v4h-6v-4-6l.87-2.61v-.01c.62.39 1.35.62 2.13.62s1.51-.23 2.13-.62v.01l.87 2.61z" fill="#ffeaa7"/></g><g><path d="m29 29v1h-4v-4-4.51c2.43 1.63 4 4.4 4 7.51z" fill="#ffeaa7"/></g><g><path d="m21 26h4v4h-4z" fill="#ff826e"/></g><g><path d="m11 26h4v4h-4z" fill="#ff826e"/></g><g><path d="m25 21.49v4.51h-4v-6l.06.01c1.45.18 2.79.7 3.94 1.48z" fill="#fcd770"/></g><g><path d="m15 20v6h-4v-4.51c1.15-.78 2.49-1.3 3.94-1.48z" fill="#fcd770"/></g><g><path d="m25 13c0 1.1-.9 2-2 2h-1.13c.09-.32.13-.65.13-1v-3h1c.5 0 .96.18 1.31.49.03.04.07.07.1.1.37.36.59.86.59 1.41z" fill="#f0d0b4"/></g><g><path d="m14 11v3c0 .35.04.68.13 1h-1.13c-.55 0-1.05-.22-1.41-.59-.37-.36-.59-.86-.59-1.41 0-.6.27-1.14.69-1.51.35-.31.81-.49 1.31-.49z" fill="#f0d0b4"/></g><g><path d="m22 11v3c0 .35-.04.68-.13 1-.26 1-.89 1.85-1.74 2.38-.62.39-1.35.62-2.13.62s-1.51-.23-2.13-.62c-.25-.15-.49-.34-.7-.55-.49-.5-.86-1.13-1.04-1.83-.09-.32-.13-.65-.13-1v-3-.15c0-1.13.64-2.17 1.66-2.68l.34-.17h2l.1-.02c.21 1.18.87 3.02 2.9 3.02z" fill="#f0d0b4"/></g></g><g><path d="m57 51h-16.184c.112-.314.184-.648.184-1v-8c0-1.654-1.346-3-3-3h-8c-.352 0-.686.072-1 .184v-2.184h6v-8h-5c0-4.854-3.479-8.997-8.244-9.894l-.459-1.377c.541-.478.985-1.06 1.279-1.729h.424c1.654 0 3-1.346 3-3 0-.628-.195-1.21-.527-1.693.341-.874.527-1.809.527-2.747 0-4.168-3.392-7.56-7.56-7.56h-.88c-4.168 0-7.56 3.392-7.56 7.56 0 .939.186 1.874.527 2.748-.332.482-.527 1.064-.527 1.692 0 1.654 1.346 3 3 3h.424c.294.67.739 1.251 1.279 1.729l-.458 1.374c-4.739.869-8.245 5.026-8.245 9.897h-5v8h6v14c-3.309 0-6 2.691-6 6s2.691 6 6 6h50c3.309 0 6-2.691 6-6s-2.691-6-6-6zm-5 9c-1.654 0-3-1.346-3-3s1.346-3 3-3 3 1.346 3 3-1.346 3-3 3zm-5-3c0 1.641.806 3.088 2.031 4h-6.062c1.225-.912 2.031-2.359 2.031-4s-.806-3.088-2.031-4h6.062c-1.225.912-2.031 2.359-2.031 4zm-34-7v-8c0-.552.448-1 1-1h1v4h6v-4h1c.552 0 1 .448 1 1v8c0 .552-.448 1-1 1h-8c-.552 0-1-.448-1-1zm4-9h2v2h-2zm12 16c0 1.654-1.346 3-3 3s-3-1.346-3-3 1.346-3 3-3 3 1.346 3 3zm-17-3c1.654 0 3 1.346 3 3s-1.346 3-3 3-3-1.346-3-3 1.346-3 3-3zm5 3c0-1.641-.806-3.088-2.031-4h7.031 1.031c-1.225.912-2.031 2.359-2.031 4s.806 3.088 2.031 4h-8.062c1.225-.912 2.031-2.359 2.031-4zm14 0c0-1.641-.806-3.088-2.031-4h1.031 7.031c-1.225.912-2.031 2.359-2.031 4s.806 3.088 2.031 4h-8.062c1.225-.912 2.031-2.359 2.031-4zm12 0c0 1.654-1.346 3-3 3s-3-1.346-3-3 1.346-3 3-3 3 1.346 3 3zm-10-16h2v2h-2zm-3 0h1v4h6v-4h1c.552 0 1 .448 1 1v8c0 .552-.448 1-1 1h-8c-.552 0-1-.448-1-1v-5-3c0-.552.448-1 1-1zm-2-12h-2v-5.307c1.249 1.427 2 3.29 2 5.307zm-4-4h-2v-3.786c.712.189 1.382.47 2 .832zm-2 2h2v2h-2zm1-13v-2c.552 0 1 .448 1 1s-.448 1-1 1zm-11-1c0-.552.448-1 1-1v2c-.552 0-1-.448-1-1zm1.1-3h-.1c-.267 0-.522.046-.769.112-.147-.504-.231-1.027-.231-1.552 0-3.066 2.494-5.56 5.56-5.56h.881c3.065 0 5.559 2.494 5.559 5.56 0 .526-.085 1.049-.231 1.553-.247-.067-.502-.113-.769-.113h-1-1c-1.959 0-1.999-2.881-2-3.003l-1 .003h-1c0 1.729.836 5 4 5v2c0 1.654-1.346 3-3 3s-3-1.346-3-3v-3.146c0-.763.424-1.448 1.105-1.789l.342-.171-.895-1.789-.342.171c-1.101.551-1.856 1.555-2.11 2.724zm4.9 9c.535 0 1.041-.107 1.525-.263l.475 1.424v8.839h-4v-8.837l.475-1.426c.484.156.99.263 1.525.263zm-4 6h-2v-2.942c.617-.362 1.287-.644 2-.837zm-2 2h2v2h-2zm-2-3.298v5.298h-2c0-2.012.748-3.871 2-5.298zm-7 11.298v-4h30v4h-4v-2h-22v2zm6 0h18v7 3 5c0 .352.072.686.184 1h-2.369c.113-.314.185-.648.185-1v-8c0-1.654-1.346-3-3-3h-8c-1.654 0-3 1.346-3 3v8c0 .352.072.686.184 1h-2.184zm-6 22c0-2.206 1.794-4 4-4h2.031c-1.225.912-2.031 2.359-2.031 4s.806 3.088 2.031 4h-2.031c-2.206 0-4-1.794-4-4zm54 4h-2.031c1.225-.912 2.031-2.359 2.031-4s-.806-3.088-2.031-4h2.031c2.206 0 4 1.794 4 4s-1.794 4-4 4z"/><circle cx="12" cy="57" r="1"/><circle cx="26" cy="57" r="1"/><circle cx="40" cy="57" r="1"/><circle cx="52" cy="57" r="1"/><path d="m48 35c-1.654 0-3 1.346-3 3v8c0 1.654 1.346 3 3 3h8c1.654 0 3-1.346 3-3v-8c0-1.654-1.346-3-3-3zm3 2h2v2h-2zm6 1v8c0 .552-.448 1-1 1h-8c-.552 0-1-.448-1-1v-8c0-.552.448-1 1-1h1v4h6v-4h1c.552 0 1 .448 1 1z"/><path d="m51 19.142c-1.721.447-3 1.999-3 3.858 0 .168.029.327.049.49-1.292 1.132-2.049 2.773-2.049 4.51v3.414l2.293 2.293 1.414-1.414-1.707-1.707v-2.586c0-.925.326-1.806.894-2.51.734.913 1.846 1.51 3.106 1.51s2.372-.597 3.106-1.51c.568.704.894 1.586.894 2.51v2.586l-1.707 1.707 1.414 1.414 2.293-2.293v-3.414c0-1.736-.758-3.377-2.049-4.511.02-.162.049-.321.049-.489 0-1.859-1.279-3.411-3-3.858v-12.142h-25v2h23zm3 3.858c0 1.103-.897 2-2 2s-2-.897-2-2 .897-2 2-2 2 .897 2 2z"/></g></g></svg>